<?xml version="1.0" encoding="UTF-8" standalone="no"?>
<!DOCTYPE svg PUBLIC "-//W3C//DTD SVG 1.1//EN"
 "http://www.w3.org/Graphics/SVG/1.1/DTD/svg11.dtd">
<!-- Generated by graphviz version 2.42.4 (0)
 -->
<!-- Title: snakemake_dag Pages: 1 -->
<svg width="267pt" height="476pt"
 viewBox="0.00 0.00 267.00 476.00" xmlns="http://www.w3.org/2000/svg" xmlns:xlink="http://www.w3.org/1999/xlink">
<g id="graph0" class="graph" transform="scale(1 1) rotate(0) translate(4 472)">
<title>snakemake_dag</title>
<polygon fill="white" stroke="transparent" points="-4,4 -4,-472 263,-472 263,4 -4,4"/>
<!-- 0 -->
<g id="node1" class="node">
<title>0</title>
<path fill="none" stroke="#568ad8" stroke-width="2" d="M165,-36C165,-36 135,-36 135,-36 129,-36 123,-30 123,-24 123,-24 123,-12 123,-12 123,-6 129,0 135,0 135,0 165,0 165,0 171,0 177,-6 177,-12 177,-12 177,-24 177,-24 177,-30 171,-36 165,-36"/>
<text text-anchor="middle" x="150" y="-15.5" font-family="sans" font-size="10.00">all</text>
</g>
<!-- 1 -->
<g id="node2" class="node">
<title>1</title>
<path fill="none" stroke="#d88d56" stroke-width="2" d="M139,-108C139,-108 103,-108 103,-108 97,-108 91,-102 91,-96 91,-96 91,-84 91,-84 91,-78 97,-72 103,-72 103,-72 139,-72 139,-72 145,-72 151,-78 151,-84 151,-84 151,-96 151,-96 151,-102 145,-108 139,-108"/>
<text text-anchor="middle" x="121" y="-87.5" font-family="sans" font-size="10.00">summary</text>
</g>
<!-- 1&#45;&gt;0 -->
<g id="edge2" class="edge">
<title>1&#45;&gt;0</title>
<path fill="none" stroke="grey" stroke-width="2" d="M128.17,-71.7C131.43,-63.81 135.37,-54.3 139,-45.55"/>
<polygon fill="grey" stroke="grey" stroke-width="2" points="142.32,-46.68 142.91,-36.1 135.85,-44 142.32,-46.68"/>
</g>
<!-- 2 -->
<g id="node3" class="node">
<title>2</title>
<path fill="none" stroke="#88d856" stroke-width="2" d="M161.5,-324C161.5,-324 92.5,-324 92.5,-324 86.5,-324 80.5,-318 80.5,-312 80.5,-312 80.5,-300 80.5,-300 80.5,-294 86.5,-288 92.5,-288 92.5,-288 161.5,-288 161.5,-288 167.5,-288 173.5,-294 173.5,-300 173.5,-300 173.5,-312 173.5,-312 173.5,-318 167.5,-324 161.5,-324"/>
<text text-anchor="middle" x="127" y="-303.5" font-family="sans" font-size="10.00">blast_assemblies</text>
</g>
<!-- 2&#45;&gt;1 -->
<g id="edge3" class="edge">
<title>2&#45;&gt;1</title>
<path fill="none" stroke="grey" stroke-width="2" d="M126.52,-287.85C125.48,-250.83 123.02,-163.18 121.77,-118.39"/>
<polygon fill="grey" stroke="grey" stroke-width="2" points="125.26,-118.13 121.48,-108.23 118.26,-118.33 125.26,-118.13"/>
</g>
<!-- 8 -->
<g id="node9" class="node">
<title>8</title>
<path fill="none" stroke="#56c1d8" stroke-width="2" d="M74.5,-252C74.5,-252 41.5,-252 41.5,-252 35.5,-252 29.5,-246 29.5,-240 29.5,-240 29.5,-228 29.5,-228 29.5,-222 35.5,-216 41.5,-216 41.5,-216 74.5,-216 74.5,-216 80.5,-216 86.5,-222 86.5,-228 86.5,-228 86.5,-240 86.5,-240 86.5,-246 80.5,-252 74.5,-252"/>
<text text-anchor="middle" x="58" y="-231.5" font-family="sans" font-size="10.00">mito2vcf</text>
</g>
<!-- 2&#45;&gt;8 -->
<g id="edge10" class="edge">
<title>2&#45;&gt;8</title>
<path fill="none" stroke="grey" stroke-width="2" d="M109.94,-287.7C101.5,-279.14 91.18,-268.66 81.96,-259.3"/>
<polygon fill="grey" stroke="grey" stroke-width="2" points="84.37,-256.77 74.86,-252.1 79.39,-261.68 84.37,-256.77"/>
</g>
<!-- 9 -->
<g id="node10" class="node">
<title>9</title>
<path fill="none" stroke="#56d8c1" stroke-width="2" d="M247,-180C247,-180 161,-180 161,-180 155,-180 149,-174 149,-168 149,-168 149,-156 149,-156 149,-150 155,-144 161,-144 161,-144 247,-144 247,-144 253,-144 259,-150 259,-156 259,-156 259,-168 259,-168 259,-174 253,-180 247,-180"/>
<text text-anchor="middle" x="204" y="-159.5" font-family="sans" font-size="10.00">combined_coverage</text>
</g>
<!-- 2&#45;&gt;9 -->
<g id="edge12" class="edge">
<title>2&#45;&gt;9</title>
<path fill="none" stroke="grey" stroke-width="2" d="M136.29,-287.87C149.58,-263.35 174.16,-218.03 189.76,-189.26"/>
<polygon fill="grey" stroke="grey" stroke-width="2" points="192.99,-190.65 194.68,-180.19 186.84,-187.31 192.99,-190.65"/>
</g>
<!-- 3 -->
<g id="node4" class="node">
<title>3</title>
<path fill="none" stroke="#d8bc56" stroke-width="2" d="M199.5,-396C199.5,-396 120.5,-396 120.5,-396 114.5,-396 108.5,-390 108.5,-384 108.5,-384 108.5,-372 108.5,-372 108.5,-366 114.5,-360 120.5,-360 120.5,-360 199.5,-360 199.5,-360 205.5,-360 211.5,-366 211.5,-372 211.5,-372 211.5,-384 211.5,-384 211.5,-390 205.5,-396 199.5,-396"/>
<text text-anchor="middle" x="160" y="-375.5" font-family="sans" font-size="10.00">extract_assemblies</text>
</g>
<!-- 3&#45;&gt;2 -->
<g id="edge6" class="edge">
<title>3&#45;&gt;2</title>
<path fill="none" stroke="grey" stroke-width="2" d="M151.84,-359.7C148.09,-351.73 143.55,-342.1 139.38,-333.26"/>
<polygon fill="grey" stroke="grey" stroke-width="2" points="142.49,-331.66 135.06,-324.1 136.16,-334.64 142.49,-331.66"/>
</g>
<!-- 4 -->
<g id="node5" class="node">
<title>4</title>
<path fill="none" stroke="#bed856" stroke-width="2" d="M210,-468C210,-468 118,-468 118,-468 112,-468 106,-462 106,-456 106,-456 106,-444 106,-444 106,-438 112,-432 118,-432 118,-432 210,-432 210,-432 216,-432 222,-438 222,-444 222,-444 222,-456 222,-456 222,-462 216,-468 210,-468"/>
<text text-anchor="middle" x="164" y="-447.5" font-family="sans" font-size="10.00">download_assemblies</text>
</g>
<!-- 4&#45;&gt;3 -->
<g id="edge7" class="edge">
<title>4&#45;&gt;3</title>
<path fill="none" stroke="grey" stroke-width="2" d="M163.01,-431.7C162.57,-423.98 162.04,-414.71 161.55,-406.11"/>
<polygon fill="grey" stroke="grey" stroke-width="2" points="165.04,-405.89 160.98,-396.1 158.05,-406.29 165.04,-405.89"/>
</g>
<!-- 5 -->
<g id="node6" class="node">
<title>5</title>
<path fill="none" stroke="#59d856" stroke-width="2" d="M74,-396C74,-396 30,-396 30,-396 24,-396 18,-390 18,-384 18,-384 18,-372 18,-372 18,-366 24,-360 30,-360 30,-360 74,-360 74,-360 80,-360 86,-366 86,-372 86,-372 86,-384 86,-384 86,-390 80,-396 74,-396"/>
<text text-anchor="middle" x="52" y="-375.5" font-family="sans" font-size="10.00">rCRS_index</text>
</g>
<!-- 5&#45;&gt;2 -->
<g id="edge5" class="edge">
<title>5&#45;&gt;2</title>
<path fill="none" stroke="grey" stroke-width="2" d="M70.54,-359.7C79.8,-351.05 91.16,-340.45 101.26,-331.03"/>
<polygon fill="grey" stroke="grey" stroke-width="2" points="103.75,-333.49 108.67,-324.1 98.98,-328.37 103.75,-333.49"/>
</g>
<!-- 5&#45;&gt;8 -->
<g id="edge11" class="edge">
<title>5&#45;&gt;8</title>
<path fill="none" stroke="grey" stroke-width="2" d="M52.72,-359.87C53.75,-335.67 55.62,-291.21 56.84,-262.39"/>
<polygon fill="grey" stroke="grey" stroke-width="2" points="60.35,-262.33 57.27,-252.19 53.35,-262.03 60.35,-262.33"/>
</g>
<!-- 6 -->
<g id="node7" class="node">
<title>6</title>
<path fill="none" stroke="#56d88a" stroke-width="2" d="M76,-468C76,-468 12,-468 12,-468 6,-468 0,-462 0,-456 0,-456 0,-444 0,-444 0,-438 6,-432 12,-432 12,-432 76,-432 76,-432 82,-432 88,-438 88,-444 88,-444 88,-456 88,-456 88,-462 82,-468 76,-468"/>
<text text-anchor="middle" x="44" y="-447.5" font-family="sans" font-size="10.00">rCRS_download</text>
</g>
<!-- 6&#45;&gt;5 -->
<g id="edge8" class="edge">
<title>6&#45;&gt;5</title>
<path fill="none" stroke="grey" stroke-width="2" d="M45.98,-431.7C46.86,-423.98 47.92,-414.71 48.9,-406.11"/>
<polygon fill="grey" stroke="grey" stroke-width="2" points="52.39,-406.44 50.05,-396.1 45.43,-405.64 52.39,-406.44"/>
</g>
<!-- 7 -->
<g id="node8" class="node">
<title>7</title>
<path fill="none" stroke="#d85656" stroke-width="2" d="M81,-180C81,-180 35,-180 35,-180 29,-180 23,-174 23,-168 23,-168 23,-156 23,-156 23,-150 29,-144 35,-144 35,-144 81,-144 81,-144 87,-144 93,-150 93,-156 93,-156 93,-168 93,-168 93,-174 87,-180 81,-180"/>
<text text-anchor="middle" x="58" y="-159.5" font-family="sans" font-size="10.00">haplogrep3</text>
</g>
<!-- 7&#45;&gt;1 -->
<g id="edge4" class="edge">
<title>7&#45;&gt;1</title>
<path fill="none" stroke="grey" stroke-width="2" d="M73.57,-143.7C81.2,-135.22 90.52,-124.86 98.88,-115.58"/>
<polygon fill="grey" stroke="grey" stroke-width="2" points="101.52,-117.88 105.61,-108.1 96.31,-113.2 101.52,-117.88"/>
</g>
<!-- 8&#45;&gt;7 -->
<g id="edge9" class="edge">
<title>8&#45;&gt;7</title>
<path fill="none" stroke="grey" stroke-width="2" d="M58,-215.7C58,-207.98 58,-198.71 58,-190.11"/>
<polygon fill="grey" stroke="grey" stroke-width="2" points="61.5,-190.1 58,-180.1 54.5,-190.1 61.5,-190.1"/>
</g>
<!-- 9&#45;&gt;0 -->
<g id="edge1" class="edge">
<title>9&#45;&gt;0</title>
<path fill="none" stroke="grey" stroke-width="2" d="M197.49,-143.87C188.2,-119.46 171.08,-74.43 160.13,-45.64"/>
<polygon fill="grey" stroke="grey" stroke-width="2" points="163.36,-44.29 156.54,-36.19 156.82,-46.78 163.36,-44.29"/>
</g>
</g>
</svg>
