<?xml version="1.0" encoding="UTF-8" standalone="no"?>
<!DOCTYPE svg PUBLIC "-//W3C//DTD SVG 1.1//EN"
 "http://www.w3.org/Graphics/SVG/1.1/DTD/svg11.dtd">
<!-- Generated by graphviz version 2.42.4 (0)
 -->
<!-- Title: snakemake_dag Pages: 1 -->
<svg width="256pt" height="476pt"
 viewBox="0.00 0.00 256.00 476.00" xmlns="http://www.w3.org/2000/svg" xmlns:xlink="http://www.w3.org/1999/xlink">
<g id="graph0" class="graph" transform="scale(1 1) rotate(0) translate(4 472)">
<title>snakemake_dag</title>
<polygon fill="white" stroke="transparent" points="-4,4 -4,-472 252,-472 252,4 -4,4"/>
<!-- 0 -->
<g id="node1" class="node">
<title>0</title>
<path fill="none" stroke="#59d856" stroke-width="2" d="M143,-36C143,-36 113,-36 113,-36 107,-36 101,-30 101,-24 101,-24 101,-12 101,-12 101,-6 107,0 113,0 113,0 143,0 143,0 149,0 155,-6 155,-12 155,-12 155,-24 155,-24 155,-30 149,-36 143,-36"/>
<text text-anchor="middle" x="128" y="-15.5" font-family="sans" font-size="10.00">all</text>
</g>
<!-- 1 -->
<g id="node2" class="node">
<title>1</title>
<path fill="none" stroke="#56d8c1" stroke-width="2" d="M115,-108C115,-108 79,-108 79,-108 73,-108 67,-102 67,-96 67,-96 67,-84 67,-84 67,-78 73,-72 79,-72 79,-72 115,-72 115,-72 121,-72 127,-78 127,-84 127,-84 127,-96 127,-96 127,-102 121,-108 115,-108"/>
<text text-anchor="middle" x="97" y="-87.5" font-family="sans" font-size="10.00">summary</text>
</g>
<!-- 1&#45;&gt;0 -->
<g id="edge1" class="edge">
<title>1&#45;&gt;0</title>
<path fill="none" stroke="grey" stroke-width="2" d="M104.66,-71.7C108.19,-63.73 112.46,-54.1 116.37,-45.26"/>
<polygon fill="grey" stroke="grey" stroke-width="2" points="119.58,-46.67 120.43,-36.1 113.18,-43.83 119.58,-46.67"/>
</g>
<!-- 2 -->
<g id="node3" class="node">
<title>2</title>
<path fill="none" stroke="#568ad8" stroke-width="2" d="M114.5,-324C114.5,-324 45.5,-324 45.5,-324 39.5,-324 33.5,-318 33.5,-312 33.5,-312 33.5,-300 33.5,-300 33.5,-294 39.5,-288 45.5,-288 45.5,-288 114.5,-288 114.5,-288 120.5,-288 126.5,-294 126.5,-300 126.5,-300 126.5,-312 126.5,-312 126.5,-318 120.5,-324 114.5,-324"/>
<text text-anchor="middle" x="80" y="-303.5" font-family="sans" font-size="10.00">blast_assemblies</text>
</g>
<!-- 2&#45;&gt;1 -->
<g id="edge4" class="edge">
<title>2&#45;&gt;1</title>
<path fill="none" stroke="grey" stroke-width="2" d="M68.53,-287.67C62.63,-277.69 56.04,-264.65 53,-252 41.8,-205.33 36.7,-189.15 53,-144 56.75,-133.6 63.54,-123.8 70.67,-115.52"/>
<polygon fill="grey" stroke="grey" stroke-width="2" points="73.32,-117.81 77.53,-108.08 68.17,-113.06 73.32,-117.81"/>
</g>
<!-- 8 -->
<g id="node9" class="node">
<title>8</title>
<path fill="none" stroke="#56d88a" stroke-width="2" d="M107.5,-252C107.5,-252 74.5,-252 74.5,-252 68.5,-252 62.5,-246 62.5,-240 62.5,-240 62.5,-228 62.5,-228 62.5,-222 68.5,-216 74.5,-216 74.5,-216 107.5,-216 107.5,-216 113.5,-216 119.5,-222 119.5,-228 119.5,-228 119.5,-240 119.5,-240 119.5,-246 113.5,-252 107.5,-252"/>
<text text-anchor="middle" x="91" y="-231.5" font-family="sans" font-size="10.00">mito2vcf</text>
</g>
<!-- 2&#45;&gt;8 -->
<g id="edge11" class="edge">
<title>2&#45;&gt;8</title>
<path fill="none" stroke="grey" stroke-width="2" d="M82.72,-287.7C83.93,-279.98 85.39,-270.71 86.74,-262.11"/>
<polygon fill="grey" stroke="grey" stroke-width="2" points="90.22,-262.53 88.31,-252.1 83.3,-261.44 90.22,-262.53"/>
</g>
<!-- 9 -->
<g id="node10" class="node">
<title>9</title>
<path fill="none" stroke="#d88d56" stroke-width="2" d="M236,-252C236,-252 150,-252 150,-252 144,-252 138,-246 138,-240 138,-240 138,-228 138,-228 138,-222 144,-216 150,-216 150,-216 236,-216 236,-216 242,-216 248,-222 248,-228 248,-228 248,-240 248,-240 248,-246 242,-252 236,-252"/>
<text text-anchor="middle" x="193" y="-231.5" font-family="sans" font-size="10.00">combined_coverage</text>
</g>
<!-- 2&#45;&gt;9 -->
<g id="edge13" class="edge">
<title>2&#45;&gt;9</title>
<path fill="none" stroke="grey" stroke-width="2" d="M107.64,-287.88C122.42,-278.72 140.79,-267.34 156.7,-257.48"/>
<polygon fill="grey" stroke="grey" stroke-width="2" points="158.59,-260.43 165.25,-252.19 154.91,-254.48 158.59,-260.43"/>
</g>
<!-- 3 -->
<g id="node4" class="node">
<title>3</title>
<path fill="none" stroke="#d8bc56" stroke-width="2" d="M105.5,-396C105.5,-396 26.5,-396 26.5,-396 20.5,-396 14.5,-390 14.5,-384 14.5,-384 14.5,-372 14.5,-372 14.5,-366 20.5,-360 26.5,-360 26.5,-360 105.5,-360 105.5,-360 111.5,-360 117.5,-366 117.5,-372 117.5,-372 117.5,-384 117.5,-384 117.5,-390 111.5,-396 105.5,-396"/>
<text text-anchor="middle" x="66" y="-375.5" font-family="sans" font-size="10.00">extract_assemblies</text>
</g>
<!-- 3&#45;&gt;2 -->
<g id="edge6" class="edge">
<title>3&#45;&gt;2</title>
<path fill="none" stroke="grey" stroke-width="2" d="M69.46,-359.7C71,-351.98 72.86,-342.71 74.58,-334.11"/>
<polygon fill="grey" stroke="grey" stroke-width="2" points="78.05,-334.6 76.58,-324.1 71.19,-333.22 78.05,-334.6"/>
</g>
<!-- 4 -->
<g id="node5" class="node">
<title>4</title>
<path fill="none" stroke="#88d856" stroke-width="2" d="M104,-468C104,-468 12,-468 12,-468 6,-468 0,-462 0,-456 0,-456 0,-444 0,-444 0,-438 6,-432 12,-432 12,-432 104,-432 104,-432 110,-432 116,-438 116,-444 116,-444 116,-456 116,-456 116,-462 110,-468 104,-468"/>
<text text-anchor="middle" x="58" y="-447.5" font-family="sans" font-size="10.00">download_assemblies</text>
</g>
<!-- 4&#45;&gt;3 -->
<g id="edge7" class="edge">
<title>4&#45;&gt;3</title>
<path fill="none" stroke="grey" stroke-width="2" d="M59.98,-431.7C60.86,-423.98 61.92,-414.71 62.9,-406.11"/>
<polygon fill="grey" stroke="grey" stroke-width="2" points="66.39,-406.44 64.05,-396.1 59.43,-405.64 66.39,-406.44"/>
</g>
<!-- 5 -->
<g id="node6" class="node">
<title>5</title>
<path fill="none" stroke="#bed856" stroke-width="2" d="M196,-396C196,-396 152,-396 152,-396 146,-396 140,-390 140,-384 140,-384 140,-372 140,-372 140,-366 146,-360 152,-360 152,-360 196,-360 196,-360 202,-360 208,-366 208,-372 208,-372 208,-384 208,-384 208,-390 202,-396 196,-396"/>
<text text-anchor="middle" x="174" y="-375.5" font-family="sans" font-size="10.00">rCRS_index</text>
</g>
<!-- 5&#45;&gt;2 -->
<g id="edge5" class="edge">
<title>5&#45;&gt;2</title>
<path fill="none" stroke="grey" stroke-width="2" d="M150.76,-359.7C138.81,-350.8 124.08,-339.82 111.15,-330.2"/>
<polygon fill="grey" stroke="grey" stroke-width="2" points="113.08,-327.27 102.97,-324.1 108.9,-332.88 113.08,-327.27"/>
</g>
<!-- 5&#45;&gt;8 -->
<g id="edge10" class="edge">
<title>5&#45;&gt;8</title>
<path fill="none" stroke="grey" stroke-width="2" d="M168.14,-359.9C161.45,-341.45 149.53,-311.54 135,-288 129,-278.28 121.36,-268.44 114.13,-259.92"/>
<polygon fill="grey" stroke="grey" stroke-width="2" points="116.61,-257.43 107.39,-252.2 111.33,-262.04 116.61,-257.43"/>
</g>
<!-- 5&#45;&gt;9 -->
<g id="edge12" class="edge">
<title>5&#45;&gt;9</title>
<path fill="none" stroke="grey" stroke-width="2" d="M176.29,-359.87C179.53,-335.67 185.48,-291.21 189.33,-262.39"/>
<polygon fill="grey" stroke="grey" stroke-width="2" points="192.84,-262.57 190.7,-252.19 185.9,-261.64 192.84,-262.57"/>
</g>
<!-- 6 -->
<g id="node7" class="node">
<title>6</title>
<path fill="none" stroke="#d85656" stroke-width="2" d="M210,-468C210,-468 146,-468 146,-468 140,-468 134,-462 134,-456 134,-456 134,-444 134,-444 134,-438 140,-432 146,-432 146,-432 210,-432 210,-432 216,-432 222,-438 222,-444 222,-444 222,-456 222,-456 222,-462 216,-468 210,-468"/>
<text text-anchor="middle" x="178" y="-447.5" font-family="sans" font-size="10.00">rCRS_download</text>
</g>
<!-- 6&#45;&gt;5 -->
<g id="edge8" class="edge">
<title>6&#45;&gt;5</title>
<path fill="none" stroke="grey" stroke-width="2" d="M177.01,-431.7C176.57,-423.98 176.04,-414.71 175.55,-406.11"/>
<polygon fill="grey" stroke="grey" stroke-width="2" points="179.04,-405.89 174.98,-396.1 172.05,-406.29 179.04,-405.89"/>
</g>
<!-- 7 -->
<g id="node8" class="node">
<title>7</title>
<path fill="none" stroke="#56c1d8" stroke-width="2" d="M120,-180C120,-180 74,-180 74,-180 68,-180 62,-174 62,-168 62,-168 62,-156 62,-156 62,-150 68,-144 74,-144 74,-144 120,-144 120,-144 126,-144 132,-150 132,-156 132,-156 132,-168 132,-168 132,-174 126,-180 120,-180"/>
<text text-anchor="middle" x="97" y="-159.5" font-family="sans" font-size="10.00">haplogrep3</text>
</g>
<!-- 7&#45;&gt;1 -->
<g id="edge3" class="edge">
<title>7&#45;&gt;1</title>
<path fill="none" stroke="grey" stroke-width="2" d="M97,-143.7C97,-135.98 97,-126.71 97,-118.11"/>
<polygon fill="grey" stroke="grey" stroke-width="2" points="100.5,-118.1 97,-108.1 93.5,-118.1 100.5,-118.1"/>
</g>
<!-- 8&#45;&gt;7 -->
<g id="edge9" class="edge">
<title>8&#45;&gt;7</title>
<path fill="none" stroke="grey" stroke-width="2" d="M92.48,-215.7C93.14,-207.98 93.94,-198.71 94.68,-190.11"/>
<polygon fill="grey" stroke="grey" stroke-width="2" points="98.17,-190.37 95.53,-180.1 91.19,-189.77 98.17,-190.37"/>
</g>
<!-- 9&#45;&gt;0 -->
<g id="edge2" class="edge">
<title>9&#45;&gt;0</title>
<path fill="none" stroke="grey" stroke-width="2" d="M187.79,-215.85C176.5,-178.68 149.7,-90.44 136.15,-45.82"/>
<polygon fill="grey" stroke="grey" stroke-width="2" points="139.49,-44.78 133.23,-36.23 132.79,-46.82 139.49,-44.78"/>
</g>
</g>
</svg>
